:SAMPLES-PER-SECOND 30
:FULLY-SPECIFIED
:DEGREES
168
root  -70.1589 40.7532 -10.3497 -2.00872 -9.78439 3.19645
RightUpLeg  -5.77097 -16.7348 -9.45059
RightLeg  5.51897 -44.6853 5.38121
RightFoot  1.13079 0.569735 -5.13179
RightToes  5.23868e-010 0 -3.6325e-017
Spine  7.86503 -1.53953 4.61653
Spine1  14.1434 -0.495081 -2.97745
HEad  -3.61431 26.0067 -11.3264
LeftShoulder1  -0.487883 4.77801 -32.1342
LeftArm  -10.3776 10.6457 -34.1343
LeftForeArm  50.4369 -78.3634 -70.9148
LeftHand  0.0865935 1.79541 -3.27143
RightShoulder  -0.669675 -5.45364 27.6162
RightArm  -6.33515 -12.3985 30.0183
RightForeArm  97.377 75.4141 128.793
RightHand  -0.0137627 0.440057 -0.330804
LeftUpLeg  5.24631 31.6302 7.54885
LeftLeg  15.2294 24.6977 3.86533
LeftFoot  -8.11816 -0.0320999 2.85109
LeftToes  -4.9204e-010 1.02043e-011 -1.81609e-011
169
root  -69.8259 40.6592 -10.6655 -1.78574 -5.38169 2.15559
RightUpLeg  -5.50961 -17.3483 -9.80762
RightLeg  6.10783 -48.3787 5.37488
RightFoot  1.63014 0.6264 -5.40622
RightToes  5.23868e-010 0 -3.6325e-017
Spine  7.29524 -1.26207 4.21133
Spine1  14.3716 -0.767577 -1.22891
HEad  -4.02058 26.8984 -10.3043
LeftShoulder1  -0.530226 4.8489 -33.2763
LeftArm  -10.3698 10.399 -34.1238
LeftForeArm  53.9015 -78.5631 -73.2088
LeftHand  0.0654469 3.1396 -4.36606
RightShoulder  -0.541125 -5.13841 26.3467
RightArm  -7.92416 -13.0856 30.6453
RightForeArm  100.087 74.9902 130.956
RightHand  0.0431057 0.188681 0.884049
LeftUpLeg  5.86776 25.278 7.29248
LeftLeg  13.114 30.2429 2.72402
LeftFoot  -6.66228 -0.0589877 2.55687
LeftToes  -4.9204e-010 1.02043e-011 -1.81609e-011
170
root  -69.4132 40.5219 -11.0061 -2.00086 -0.548717 1.23804
RightUpLeg  -4.81367 -19.8159 -10.9327
RightLeg  7.79382 -50.6165 4.98967
RightFoot  1.54167 0.561634 -4.8757
RightToes  5.23868e-010 0 -3.6325e-017
Spine  7.38199 -1.21803 4.23404
Spine1  14.1646 -0.951219 -0.431709
HEad  -4.37309 26.7862 -9.18758
LeftShoulder1  -0.494865 4.7595 -33.2747
LeftArm  -10.2108 9.91293 -35.2097
LeftForeArm  55.7928 -78.663 -74.7929
LeftHand  0.0718999 2.74019 -3.94472
RightShoulder  -0.59504 -5.29782 26.4268
RightArm  -9.39531 -13.4699 30.3086
RightForeArm  103.197 74.4085 133.566
RightHand  0.0726726 -0.131152 1.61635
LeftUpLeg  6.31819 16.7891 5.97565
LeftLeg  9.8792 32.0106 1.02878
LeftFoot  -5.42447 0.00158305 0.263601
LeftToes  -4.9204e-010 1.02043e-011 -1.81609e-011
171
root  -68.9758 40.4037 -11.3335 -2.65202 3.60885 1.05526
RightUpLeg  -4.32743 -31.8897 -12.2528
RightLeg  10.7144 -42.6466 3.19717
RightFoot  0.98665 0.483331 -4.40128
RightToes  5.23868e-010 0 -3.6325e-017
Spine  7.78526 -0.9673 3.49687
Spine1  13.9394 -0.736087 -0.654846
HEad  -4.92502 26.0418 -8.0556
LeftShoulder1  -0.437409 4.6338 -32.4813
LeftArm  -10.1158 9.94539 -36.8654
LeftForeArm  60.182 -78.8641 -78.5897
LeftHand  0.0674884 2.59986 -3.54947
RightShoulder  -0.715336 -5.62719 27.0241
RightArm  -11.0085 -13.4544 30.1512
RightForeArm  104.027 73.926 135.253
RightHand  0.0420567 -0.588707 1.09187
LeftUpLeg  6.45736 11.5418 4.52031
LeftLeg  8.80317 32.0132 1.10373
LeftFoot  -7.83851 0.172139 -3.84982
LeftToes  -4.9204e-010 1.02043e-011 -1.81609e-011
172
root  -68.5459 40.237 -11.6428 -3.17657 6.38825 2.26232
RightUpLeg  -7.34013 -53.5432 -12.2566
RightLeg  16.0283 -21.92 -3.12898
RightFoot  0.370426 0.299017 -2.9007
RightToes  5.23868e-010 0 -3.6325e-017
Spine  7.8381 -0.164104 1.62974
Spine1  14.4733 0.267721 -1.64356
HEad  -6.03873 25.8021 -6.32275
LeftShoulder1  -0.274213 4.24426 -30.9694
LeftArm  -10.4935 9.71983 -38.7696
LeftForeArm  62.1442 -78.9269 -81.0132
LeftHand  0.0612941 3.22044 -4.38709
RightShoulder  -0.801304 -5.81875 28.0065
RightArm  -13.0372 -12.9766 30.087
RightForeArm  104.088 73.5218 136.471
RightHand  0.01294 -0.234297 0.423874
LeftUpLeg  6.21477 10.9671 2.91806
LeftLeg  9.44718 29.6124 0.646921
LeftFoot  -8.8047 0.142872 -4.07549
LeftToes  -4.9204e-010 1.02043e-011 -1.81609e-011
173
root  -68.1264 40.0576 -11.9465 -3.0683 9.27575 3.6355
RightUpLeg  -11.0787 -52.6069 -12.6854
RightLeg  19.878 -14.7356 -6.48008
RightFoot  0.434429 -0.0163733 0.159044
RightToes  5.23868e-010 0 -3.6325e-017
Spine  7.78956 0.308446 -0.192575
Spine1  14.7165 0.89161 -2.53241
HEad  -6.89654 25.8837 -6.83585
LeftShoulder1  -0.220892 4.10489 -30.6246
LeftArm  -10.9889 9.08551 -38.8757
LeftForeArm  64.7965 -78.992 -83.7655
LeftHand  0.0716781 2.80367 -4.0322
RightShoulder  -0.892041 -6.07767 28.0756
RightArm  -14.5401 -12.7425 32.7131
RightForeArm  105.62 72.9194 138.381
RightHand  -0.0475874 0.436773 -0.901814
LeftUpLeg  4.81716 10.6442 0.80003
LeftLeg  11.4048 27.2905 1.07767
LeftFoot  -9.94812 0.109468 -3.99845
LeftToes  -4.9204e-010 1.02043e-011 -1.81609e-011
174
root  -67.7624 39.9057 -12.1173 -3.23036 11.764 3.75275
RightUpLeg  -10.4357 -36.6007 -15.6485
RightLeg  22.5404 -9.49111 -4.46217
RightFoot  -0.714777 -0.337684 3.71035
RightToes  5.23868e-010 0 -3.6325e-017
Spine  7.94542 0.53304 0.119235
Spine1  14.6786 1.67579 -4.72151
HEad  -7.28336 26.1693 -8.10082
LeftShoulder1  -0.229982 4.13187 -30.4279
LeftArm  -11.6012 8.84723 -38.3222
LeftForeArm  66.5637 -78.9993 -86.4154
LeftHand  0.0585975 3.24384 -4.29312
RightShoulder  -0.887194 -6.04486 28.3174
RightArm  -16.3765 -12.8773 34.5689
RightForeArm  111.298 72.3827 140.578
RightHand  0.0467216 -1.19992 1.40608
LeftUpLeg  3.56697 10.8806 0.154659
LeftLeg  13.8621 24.8394 1.82622
LeftFoot  -11.0666 0.0731572 -3.15617
LeftToes  -4.9204e-010 1.02043e-011 -1.81609e-011
175
root  -67.4228 39.7464 -12.1944 -3.85518 14.8091 3.98809
RightUpLeg  -10.4279 -24.0447 -17.4021
RightLeg  26.7378 -2.37563 -1.53094
RightFoot  -4.15279 -0.457458 6.7267
RightToes  5.23868e-010 0 -3.6325e-017
Spine  8.794 0.521969 -0.332419
Spine1  14.3815 1.74332 -5.84076
HEad  -6.69877 26.9883 -9.53729
LeftShoulder1  -0.333633 4.40514 -30.8975
LeftArm  -12.4523 8.77603 -37.6543
LeftForeArm  67.5183 -78.9937 -87.7694
LeftHand  0.0709433 2.94539 -4.25653
RightShoulder  -0.79565 -5.80092 28.006
RightArm  -16.6242 -12.7637 36.2156
RightForeArm  113.183 72.2958 141.055
RightHand  0.0310155 -1.54799 1.21089
LeftUpLeg  3.0775 10.3911 -0.779277
LeftLeg  16.0256 22.4469 2.79888
LeftFoot  -12.2323 0.0511198 -2.91915
LeftToes  -4.9204e-010 1.02043e-011 -1.81609e-011
176
root  -67.0911 39.6841 -12.209 -3.95668 18.2919 3.7248
RightUpLeg  -11.6445 -17.1461 -17.0913
RightLeg  32.7013 -0.709027 -0.768203
RightFoot  -5.02569 -0.45603 7.58815
RightToes  5.23868e-010 0 -3.6325e-017
Spine  9.28973 0.273683 -0.131098
Spine1  13.7344 1.6494 -7.02384
HEad  -6.01482 26.414 -9.62678
LeftShoulder1  -0.344076 4.44838 -30.2941
LeftArm  -13.5978 9.76576 -37.8526
LeftForeArm  71.3799 -79.0022 -91.5881
LeftHand  0.0494967 3.22937 -3.76816
RightShoulder  -0.895524 -6.02849 28.9041
RightArm  -15.6816 -11.9416 36.4495
RightForeArm  113.085 72.572 140.381
RightHand  0.0304113 -1.36271 1.0911
LeftUpLeg  2.62688 9.83175 -1.14748
LeftLeg  16.7728 19.711 2.83692
LeftFoot  -12.9484 0.0455785 -2.2504
LeftToes  -4.9204e-010 1.02043e-011 -1.81609e-011
177
root  -66.7885 39.7437 -12.1403 -3.98472 21.3593 3.13038
RightUpLeg  -13.6218 -13.8448 -15.4106
RightLeg  39.0978 -2.05265 -2.08568
RightFoot  -5.43659 -0.303661 5.18574
RightToes  5.23868e-010 0 -3.6325e-017
Spine  9.34538 0.456928 -0.699059
Spine1  13.4815 1.46705 -6.13435
HEad  -6.08711 26.1658 -9.99931
LeftShoulder1  -0.404951 4.60904 -30.4385
LeftArm  -14.5073 10.6367 -37.6917
LeftForeArm  74.3243 -78.9639 -94.6651
LeftHand  0.0806129 2.4561 -3.83343
RightShoulder  -0.83226 -5.86646 28.5439
RightArm  -15.1954 -11.9485 37.025
RightForeArm  113.113 72.5657 140.398
RightHand  0.0399787 -1.75626 1.69498
LeftUpLeg  2.81317 9.42656 -0.950524
LeftLeg  16.0675 17.253 2.1646
LeftFoot  -12.9915 0.0548835 -1.62102
LeftToes  -4.9204e-010 1.02043e-011 -1.81609e-011
178
root  -66.5164 39.8018 -11.9606 -3.54887 24.2128 2.35795
RightUpLeg  -16.3209 -11.1793 -12.6846
RightLeg  43.9227 -3.3164 -3.673
RightFoot  -5.51637 -0.181977 2.83387
RightToes  5.23868e-010 0 -3.6325e-017
Spine  8.71764 0.668706 -1.61983
Spine1  13.5146 1.15126 -4.38918
HEad  -7.09163 25.8126 -9.98528
LeftShoulder1  -0.511197 4.87282 -31.2334
LeftArm  -15.1196 10.9694 -36.5198
LeftForeArm  78.2858 -78.8501 -99.0176
LeftHand  0.0787204 2.92961 -4.62017
RightShoulder  -0.620074 -5.33002 27.2821
RightArm  -14.6591 -12.0747 38.1298
RightForeArm  113.941 72.8024 139.941
RightHand  0.0702148 -2.12897 3.02403
LeftUpLeg  2.59795 9.64454 -0.196012
LeftLeg  15.3893 14.258 1.06115
LeftFoot  -13.1734 0.0652561 -0.832216
LeftToes  -4.9204e-010 1.02043e-011 -1.81609e-011
179
root  -66.1551 39.8933 -11.8083 -3.11671 27.2708 1.82616
RightUpLeg  -18.212 -10.8132 -10.5319
RightLeg  44.7379 -2.30727 -2.74966
RightFoot  -5.8755 -0.155888 2.43026
RightToes  5.23868e-010 0 -3.6325e-017
Spine  8.82619 0.749662 -0.862254
Spine1  13.0518 1.5454 -4.83083
HEad  -8.09693 24.004 -9.48732
LeftShoulder1  -0.356784 4.47935 -30.2149
LeftArm  -15.538 11.3811 -36.5775
LeftForeArm  80.7679 -78.7316 -101.913
LeftHand  0.0519925 3.53293 -4.69408
RightShoulder  -0.781894 -5.75008 28.114
RightArm  -14.0013 -12.3526 37.3486
RightForeArm  113.439 72.2202 141.264
RightHand  0.0286353 -1.70499 1.17382
LeftUpLeg  2.72244 9.29888 -0.0796848
LeftLeg  14.0907 11.584 0.274098
LeftFoot  -12.9527 0.0763597 -0.114293
LeftToes  -4.9204e-010 1.02043e-011 -1.81609e-011
180
root  -65.8034 39.9521 -11.6598 -2.4694 29.8532 1.3291
RightUpLeg  -20.1235 -11.2162 -8.33741
RightLeg  42.1031 -0.818533 -1.10615
RightFoot  -5.99638 -0.175221 2.88709
RightToes  5.23868e-010 0 -3.6325e-017
Spine  9.09847 1.0476 0.358208
Spine1  12.3563 2.38608 -5.95985
HEad  -9.26538 22.3905 -9.12457
LeftShoulder1  -0.0953696 3.77877 -28.9068
LeftArm  -15.8311 11.6313 -37.4355
LeftForeArm  81.7458 -78.7286 -102.439
LeftHand  0.0631298 3.25797 -4.68551
RightShoulder  -0.991242 -6.28219 29.1406
RightArm  -13.9057 -12.5851 36.2799
RightForeArm  114.248 71.6068 142.768
RightHand  0.0216441 -1.64331 1.01997
LeftUpLeg  2.54679 9.11509 0.0341317
LeftLeg  13.126 9.32744 -0.333059
LeftFoot  -13.1031 0.0823228 0.244802
LeftToes  -4.9204e-010 1.02043e-011 -1.81609e-011
